<?xml version="1.0" encoding="UTF-8" standalone="no"?>
<svg
   width="23"
   height="23"
   viewBox="0 0 23 23"
   fill="none"
   version="1.1"
   id="svg2"
   sodipodi:docname="nav-close.svg"
   inkscape:version="1.3.2 (091e20e, 2023-11-25, custom)"
   xmlns:inkscape="http://www.inkscape.org/namespaces/inkscape"
   xmlns:sodipodi="http://sodipodi.sourceforge.net/DTD/sodipodi-0.dtd"
   xmlns="http://www.w3.org/2000/svg"
   xmlns:svg="http://www.w3.org/2000/svg">
  <defs
     id="defs2" />
  <sodipodi:namedview
     id="namedview2"
     pagecolor="#ffffff"
     bordercolor="#000000"
     borderopacity="0.25"
     inkscape:showpageshadow="2"
     inkscape:pageopacity="0.0"
     inkscape:pagecheckerboard="0"
     inkscape:deskcolor="#d1d1d1"
     inkscape:zoom="34.217391"
     inkscape:cx="11.485388"
     inkscape:cy="11.5"
     inkscape:window-width="1920"
     inkscape:window-height="1001"
     inkscape:window-x="-9"
     inkscape:window-y="-9"
     inkscape:window-maximized="1"
     inkscape:current-layer="svg2" />
  <rect
     x="2.82837"
     width="27.3715"
     height="4"
     transform="rotate(45 2.82837 0)"
     fill="#828282"
     id="rect1" />
  <rect
     x="0.141357"
     y="19.5566"
     width="27.3715"
     height="4"
     transform="rotate(-45 0.141357 19.5566)"
     fill="#828282"
     id="rect2" />
  <path
     style="fill:#ffffff;stroke-width:0.0292249"
     d="M 1.5561492,20.946875 0.16081137,19.55131 4.3107111,15.401487 8.4606108,11.251665 4.244956,7.0359341 0.02930108,2.8202036 1.4247523,1.4247524 2.8202035,0.02930121 7.0213213,4.2303432 c 2.3106148,2.310573 4.2142347,4.2010418 4.2302657,4.2010418 0.01603,0 1.876945,-1.8477615 4.135363,-4.1061368 L 19.493164,0.21911134 20.895807,1.6219822 22.298449,3.024853 18.177853,7.1455266 14.057257,11.2662 18.104829,15.31385 22.1524,19.361501 20.75695,20.75695 19.361501,22.1524 15.31385,18.104829 11.2662,14.057257 7.1235317,18.199849 C 4.845064,20.478274 2.9742536,22.34244 2.9661753,22.34244 c -0.00808,0 -0.6425903,-0.628005 -1.4100261,-1.395565 z"
     id="path2" />
</svg>
